<?xml version="1.0" encoding="utf-8"?>
<!-- Generator: Adobe Illustrator 16.0.0, SVG Export Plug-In . SVG Version: 6.00 Build 0)  -->
<!DOCTYPE svg PUBLIC "-//W3C//DTD SVG 1.1//EN" "http://www.w3.org/Graphics/SVG/1.1/DTD/svg11.dtd">
<svg version="1.1" id="Layer_1" xmlns="http://www.w3.org/2000/svg" xmlns:xlink="http://www.w3.org/1999/xlink" x="0px" y="0px"
	 width="841.889px" height="595.276px" viewBox="0 0 841.889 595.276" enable-background="new 0 0 841.889 595.276"
	 xml:space="preserve">
<g>
	<g>
		<path fill="#808285" d="M248.34,336.464v0.733h-10.807v-0.733h3.229v-32.272h-3.473v-0.733h1.027c2.574,0,4.873-0.212,6.895-0.636
			v16.137h0.293c0.555-1.565,1.492-2.828,2.813-3.79c1.32-0.961,2.795-1.442,4.424-1.442c2.836,0,4.775,0.84,5.82,2.519
			c1.041,1.679,1.564,4.181,1.564,7.506v12.713h3.227v0.733h-10.807v-0.733h3.227v-12.028c0-3.684-0.277-6.112-0.83-7.286
			c-0.262-0.521-0.66-0.994-1.197-1.418c-0.539-0.424-1.33-0.636-2.373-0.636s-2.029,0.375-2.957,1.125
			c-0.93,0.75-1.623,1.776-2.078,3.08c-0.816,2.315-1.223,5.085-1.223,8.313v8.851H248.34z"/>
		<path fill="#808285" d="M288.045,334.752c-1.891,2.282-4.531,3.423-7.922,3.423s-6.031-1.141-7.92-3.423
			c-1.893-2.281-2.838-5.215-2.838-8.801s0.945-6.52,2.838-8.802c1.889-2.281,4.529-3.423,7.92-3.423s6.031,1.142,7.922,3.423
			c1.891,2.282,2.836,5.216,2.836,8.802S289.936,332.471,288.045,334.752z M286.041,329.227c0.064-0.944,0.098-2.036,0.098-3.275
			c0-1.238-0.033-2.33-0.098-3.276c-0.066-0.945-0.221-1.956-0.465-3.031c-0.244-1.076-0.57-1.964-0.979-2.665
			s-0.994-1.279-1.76-1.736c-0.768-0.456-1.672-0.685-2.715-0.685s-1.947,0.229-2.713,0.685c-0.768,0.457-1.354,1.035-1.76,1.736
			c-0.408,0.701-0.734,1.589-0.979,2.665c-0.244,1.075-0.4,2.086-0.465,3.031c-0.066,0.946-0.098,2.038-0.098,3.276
			c0,1.239,0.031,2.331,0.098,3.275c0.064,0.946,0.221,1.956,0.465,3.032c0.244,1.075,0.57,1.964,0.979,2.665
			c0.406,0.701,0.992,1.279,1.76,1.735c0.766,0.457,1.67,0.685,2.713,0.685s1.947-0.228,2.715-0.685
			c0.766-0.456,1.352-1.034,1.76-1.735s0.734-1.59,0.979-2.665C285.82,331.183,285.975,330.173,286.041,329.227z"/>
		<path fill="#808285" d="M305.451,336.464h3.229v0.733h-10.807v-0.733h3.227v-32.272h-3.471v-0.733h1.025
			c2.543,0,4.809-0.212,6.797-0.636V336.464z"/>
		<path fill="#808285" d="M322.223,336.464h3.227v0.733h-10.805v-0.733h3.227v-21.026h-3.473v-0.733h1.027
			c2.543,0,4.809-0.211,6.797-0.635V336.464z M317.846,309.351c-0.537-0.538-0.807-1.214-0.807-2.029
			c0-0.814,0.27-1.499,0.807-2.054c0.539-0.554,1.215-0.831,2.029-0.831s1.5,0.277,2.055,0.831c0.553,0.555,0.83,1.239,0.83,2.054
			c0,0.815-0.277,1.491-0.83,2.029c-0.555,0.537-1.24,0.807-2.055,0.807S318.385,309.888,317.846,309.351z"/>
		<path fill="#808285" d="M341.732,313.727c0.748,0,1.467,0.049,2.15,0.146c-2.086-1.76-3.129-3.992-3.129-6.698
			s1.1-4.841,3.301-6.406c2.199-1.564,4.637-2.347,7.311-2.347c2.607,0,4.971,0.767,7.09,2.298c1.141,0.782,2.053,1.94,2.738,3.472
			c0.684,1.533,1.027,3.325,1.027,5.379v5.134h5.916v0.733h-5.916v16.626c0,2.738,0.178,4.254,0.537,4.547
			c0.195,0.164,0.455,0.245,0.783,0.245c0.814,0,1.604-0.473,2.371-1.419c0.766-0.944,1.393-1.972,1.883-3.08l0.781,0.293
			c-0.619,1.565-1.451,2.878-2.494,3.937s-2.248,1.589-3.617,1.589c-1.924,0-3.172-0.579-3.74-1.735
			c-0.572-1.157-0.857-2.975-0.857-5.452v-15.55h-3.471v-0.733h0.881c3.65,0,5.475-2.477,5.475-7.432
			c0-2.478-0.945-4.426-2.836-5.844s-4.082-2.127-6.576-2.127s-4.734,0.709-6.723,2.127s-2.982,3.22-2.982,5.403
			c0,3.357,1.662,5.966,4.986,7.823c1.695,0.881,2.543,2.25,2.543,4.107c0,0.979-0.318,1.802-0.953,2.47
			c-0.637,0.668-1.387,1.002-2.25,1.002s-1.564-0.252-2.102-0.758c-0.539-0.505-0.807-1.124-0.807-1.857
			c0-0.734,0.211-1.353,0.635-1.858c0.424-0.505,0.994-0.758,1.711-0.758c1.109,0,1.762,0.424,1.957,1.271
			c0.031,0.293,0.188,0.439,0.465,0.439c0.275,0,0.414-0.146,0.414-0.439c0-0.913-0.447-1.736-1.344-2.47s-2.266-1.101-4.107-1.101
			s-3.357,0.343-4.547,1.027c-1.191,0.685-1.785,1.638-1.785,2.86s0.473,2.209,1.418,2.958c0.945,0.751,2.086,1.369,3.422,1.858
			c1.338,0.489,2.682,1.002,4.035,1.54c1.352,0.538,2.502,1.313,3.447,2.323s1.418,2.232,1.418,3.667
			c0,2.444-0.873,4.263-2.617,5.452s-3.902,1.784-6.479,1.784c-2.574,0-4.645-0.456-6.209-1.369
			c-1.564-0.912-2.348-2.298-2.348-4.156c0-0.978,0.318-1.801,0.953-2.469c0.637-0.668,1.385-1.003,2.25-1.003
			c0.863,0,1.564,0.253,2.102,0.758c0.539,0.506,0.807,1.125,0.807,1.858s-0.211,1.354-0.635,1.858
			c-0.424,0.506-0.994,0.758-1.711,0.758c-1.109,0-1.76-0.423-1.957-1.271c-0.031-0.293-0.188-0.44-0.463-0.44
			c-0.277,0-0.416,0.147-0.416,0.44c0,0.979,0.545,1.899,1.637,2.763c1.092,0.864,2.715,1.296,4.865,1.296
			c4.727,0,7.092-1.532,7.092-4.597c0-1.89-1.615-3.423-4.842-4.596c-1.369-0.489-2.723-1.003-4.059-1.541
			c-1.336-0.537-2.477-1.312-3.422-2.322c-0.947-1.01-1.418-2.232-1.418-3.667c0-2.086,0.822-3.732,2.469-4.938
			S339.416,313.727,341.732,313.727z"/>
		<path fill="#808285" d="M380.85,336.464h3.227v0.733H373.27v-0.733h3.229v-21.026h-3.473v-0.733h1.027
			c2.543,0,4.809-0.211,6.797-0.635V336.464z M376.473,309.351c-0.537-0.538-0.807-1.214-0.807-2.029
			c0-0.814,0.27-1.499,0.807-2.054c0.539-0.554,1.215-0.831,2.029-0.831s1.5,0.277,2.055,0.831c0.553,0.555,0.83,1.239,0.83,2.054
			c0,0.815-0.277,1.491-0.83,2.029c-0.555,0.537-1.24,0.807-2.055,0.807S377.012,309.888,376.473,309.351z"/>
		<path fill="#808285" d="M402.266,314.704c-4.434,0-6.65,3.685-6.65,11.051c0,7.368,2.25,11.051,6.748,11.051
			c1.695,0,3.088-0.618,4.182-1.857c1.092-1.238,1.85-2.836,2.273-4.792l0.879,0.098c-0.488,2.38-1.467,4.295-2.934,5.745
			s-3.324,2.176-5.574,2.176c-3.357,0-5.916-1.132-7.676-3.398c-1.762-2.265-2.641-5.239-2.641-8.923s0.887-6.626,2.664-8.826
			s4.426-3.301,7.947-3.301c2.248,0,4.074,0.489,5.477,1.467c1.4,0.979,2.102,2.462,2.102,4.45c0,0.978-0.318,1.801-0.953,2.469
			c-0.637,0.669-1.387,1.003-2.25,1.003s-1.564-0.253-2.102-0.758c-0.539-0.506-0.807-1.125-0.807-1.858s0.211-1.353,0.635-1.858
			c0.424-0.505,0.994-0.758,1.711-0.758c1.109,0,1.762,0.424,1.957,1.271c0.031,0.293,0.188,0.44,0.465,0.44
			c0.275,0,0.414-0.147,0.414-0.44c0-1.108-0.496-2.127-1.49-3.057C405.646,315.169,404.189,314.704,402.266,314.704z"/>
		<path fill="#808285" d="M424.809,313.727c3.879,0,6.445,0.872,7.701,2.616c1.254,1.744,1.883,4.784,1.883,9.119v8.655
			c0,1.337,0.293,2.004,0.879,2.004c1.207,0,2.006-1.874,2.396-5.623l0.881,0.098c-0.49,5.054-2.137,7.579-4.939,7.579
			c-0.814,0-1.441-0.293-1.883-0.88c-0.439-0.587-0.717-1.229-0.83-1.932c-0.115-0.7-0.172-1.572-0.172-2.615h-0.293
			c-0.424,1.728-1.289,3.064-2.592,4.009c-1.305,0.945-2.975,1.418-5.012,1.418c-2.039,0-3.824-0.546-5.355-1.638
			c-1.533-1.092-2.299-2.665-2.299-4.719c0-1.531,0.441-2.803,1.32-3.813c1.826-2.086,5.967-3.13,12.422-3.13
			c0.357,0,0.732,0,1.125,0v-2.396c0-2.575-0.441-4.515-1.32-5.819c-0.881-1.303-2.404-1.956-4.572-1.956s-3.758,0.44-4.77,1.32
			c-1.01,0.881-1.516,1.794-1.516,2.738c0,0.294,0.139,0.44,0.416,0.44s0.432-0.146,0.465-0.44c0.195-0.847,0.848-1.271,1.955-1.271
			c0.717,0,1.289,0.253,1.713,0.759c0.424,0.505,0.637,1.124,0.637,1.857s-0.27,1.354-0.809,1.858
			c-0.537,0.506-1.238,0.758-2.102,0.758c-0.865,0-1.615-0.334-2.25-1.002c-0.637-0.668-0.953-1.492-0.953-2.47
			c0-1.825,0.766-3.203,2.297-4.132C420.766,314.191,422.623,313.727,424.809,313.727z M430.041,329.031v-3.276
			c-0.326,0-0.84,0-1.541,0s-1.533,0.05-2.494,0.147s-1.947,0.342-2.957,0.733c-2.088,0.75-3.131,2.412-3.131,4.987
			c0,1.564,0.375,2.82,1.125,3.765c0.75,0.946,1.955,1.418,3.619,1.418c1.662,0,2.975-0.749,3.936-2.249
			C429.559,333.058,430.041,331.216,430.041,329.031z"/>
		<path fill="#808285" d="M444.684,336.88c-0.537-0.538-0.807-1.215-0.807-2.029s0.27-1.499,0.807-2.054
			c0.539-0.555,1.215-0.832,2.029-0.832s1.5,0.277,2.055,0.832c0.553,0.555,0.83,1.239,0.83,2.054s-0.277,1.491-0.83,2.029
			c-0.555,0.537-1.24,0.807-2.055,0.807S445.223,337.417,444.684,336.88z"/>
		<path fill="#808285" d="M476.051,334.752c-1.891,2.282-4.531,3.423-7.922,3.423s-6.031-1.141-7.92-3.423
			c-1.891-2.281-2.836-5.215-2.836-8.801s0.945-6.52,2.836-8.802c1.889-2.281,4.529-3.423,7.92-3.423s6.031,1.142,7.922,3.423
			c1.891,2.282,2.836,5.216,2.836,8.802S477.941,332.471,476.051,334.752z M474.047,329.227c0.064-0.944,0.098-2.036,0.098-3.275
			c0-1.238-0.033-2.33-0.098-3.276c-0.066-0.945-0.221-1.956-0.465-3.031c-0.244-1.076-0.57-1.964-0.979-2.665
			s-0.994-1.279-1.76-1.736c-0.766-0.456-1.672-0.685-2.715-0.685s-1.947,0.229-2.713,0.685c-0.766,0.457-1.354,1.035-1.76,1.736
			c-0.408,0.701-0.734,1.589-0.979,2.665c-0.244,1.075-0.4,2.086-0.465,3.031c-0.066,0.946-0.098,2.038-0.098,3.276
			c0,1.239,0.031,2.331,0.098,3.275c0.064,0.946,0.221,1.956,0.465,3.032c0.244,1.075,0.57,1.964,0.979,2.665
			c0.406,0.701,0.994,1.279,1.76,1.735c0.766,0.457,1.67,0.685,2.713,0.685s1.949-0.228,2.715-0.685
			c0.766-0.456,1.352-1.034,1.76-1.735s0.734-1.59,0.979-2.665C473.826,331.183,473.98,330.173,474.047,329.227z"/>
		<path fill="#808285" d="M496.686,336.464v0.733h-10.807v-0.733h3.229v-21.026h-3.473v-0.733h1.027
			c2.574,0,4.873-0.211,6.895-0.635v4.89h0.293c0.555-1.565,1.492-2.828,2.811-3.79c1.32-0.961,2.795-1.442,4.426-1.442
			c2.836,0,4.775,0.84,5.818,2.519s1.566,4.181,1.566,7.506v12.713h3.227v0.733h-10.807v-0.733h3.227v-12.028
			c0-3.684-0.277-6.112-0.83-7.286c-0.262-0.521-0.66-0.994-1.199-1.418c-0.537-0.424-1.328-0.636-2.371-0.636
			s-2.029,0.375-2.957,1.125c-0.93,0.75-1.623,1.776-2.078,3.08c-0.816,2.315-1.223,5.085-1.223,8.313v8.851H496.686z"/>
		<path fill="#808285" d="M524.654,336.464h3.227v0.733h-10.805v-0.733h3.227v-32.272h-3.473v-0.733h1.027
			c2.543,0,4.809-0.212,6.797-0.636V336.464z"/>
		<path fill="#808285" d="M541.426,336.464h3.227v0.733h-10.807v-0.733h3.229v-21.026h-3.473v-0.733h1.027
			c2.543,0,4.807-0.211,6.797-0.635V336.464z M537.049,309.351c-0.537-0.538-0.807-1.214-0.807-2.029
			c0-0.814,0.27-1.499,0.807-2.054c0.537-0.554,1.215-0.831,2.029-0.831s1.5,0.277,2.055,0.831c0.553,0.555,0.83,1.239,0.83,2.054
			c0,0.815-0.277,1.491-0.83,2.029c-0.555,0.537-1.24,0.807-2.055,0.807S537.586,309.888,537.049,309.351z"/>
		<path fill="#808285" d="M561.473,336.464v0.733h-10.807v-0.733h3.229v-21.026h-3.473v-0.733h1.027
			c2.574,0,4.873-0.211,6.895-0.635v4.89h0.293c0.555-1.565,1.492-2.828,2.811-3.79c1.32-0.961,2.795-1.442,4.426-1.442
			c2.836,0,4.775,0.84,5.818,2.519s1.566,4.181,1.566,7.506v12.713h3.227v0.733h-10.807v-0.733h3.227v-12.028
			c0-3.684-0.277-6.112-0.83-7.286c-0.262-0.521-0.66-0.994-1.199-1.418c-0.537-0.424-1.328-0.636-2.371-0.636
			s-2.029,0.375-2.957,1.125c-0.93,0.75-1.623,1.776-2.078,3.08c-0.816,2.315-1.223,5.085-1.223,8.313v8.851H561.473z"/>
		<path fill="#808285" d="M593.402,313.727c2.445,0,4.49,0.521,6.137,1.564c1.646,1.044,2.469,2.608,2.469,4.694
			c0,3.228-1.842,5.216-5.525,5.966c-1.857,0.358-4.172,0.537-6.943,0.537h-2.297v1.419c0,2.64,0.545,4.784,1.637,6.43
			c1.092,1.646,2.689,2.469,4.793,2.469c2.102,0,3.748-0.618,4.938-1.857c1.189-1.238,2.029-2.836,2.52-4.792l0.879,0.098
			c-0.521,2.38-1.572,4.295-3.154,5.745c-1.58,1.45-3.576,2.176-5.988,2.176c-3.391,0-5.967-1.116-7.727-3.349
			s-2.641-5.191-2.641-8.875s0.945-6.642,2.836-8.875C587.225,314.844,589.914,313.727,593.402,313.727z M587.242,325.608h1.711
			c2.641,0,4.49-0.261,5.549-0.782c1.059-0.521,1.785-1.165,2.176-1.932c0.393-0.766,0.588-1.85,0.588-3.251s-0.352-2.6-1.051-3.595
			c-0.703-0.993-1.77-1.491-3.203-1.491c-1.436,0-2.6,0.514-3.496,1.54c-0.898,1.027-1.5,2.226-1.811,3.595
			c-0.309,1.369-0.463,2.885-0.463,4.547V325.608z"/>
	</g>
	<g>
		<path fill="#939598" d="M241.135,366.089c-0.625,0-1.15-0.121-1.574-0.364c-0.424-0.244-0.742-0.593-0.955-1.049
			c-0.211-0.456-0.318-1.008-0.318-1.657v-5.467h-1.516c-0.125,0-0.225-0.031-0.299-0.094c-0.076-0.063-0.113-0.144-0.113-0.243
			s0.037-0.181,0.113-0.243c0.074-0.063,0.174-0.094,0.299-0.094h1.516v-2.527c0-0.138,0.035-0.24,0.104-0.31
			c0.068-0.068,0.166-0.103,0.291-0.103s0.221,0.034,0.289,0.103c0.068,0.069,0.104,0.172,0.104,0.31v2.527h2.678
			c0.137,0,0.24,0.031,0.309,0.094s0.104,0.144,0.104,0.243s-0.035,0.181-0.104,0.243s-0.172,0.094-0.309,0.094h-2.678v5.299
			c0,0.812,0.162,1.432,0.486,1.862s0.867,0.646,1.629,0.646c0.262,0,0.479-0.028,0.646-0.085c0.168-0.056,0.309-0.084,0.422-0.084
			c0.074,0,0.141,0.031,0.195,0.094c0.057,0.063,0.084,0.149,0.084,0.262c0,0.063-0.016,0.129-0.045,0.197
			c-0.033,0.068-0.092,0.115-0.18,0.14c-0.125,0.051-0.303,0.097-0.533,0.141S241.334,366.089,241.135,366.089z"/>
		<path fill="#939598" d="M256.973,366.089c-0.898,0-1.672-0.187-2.32-0.562c-0.65-0.374-1.152-0.908-1.508-1.601
			s-0.533-1.52-0.533-2.48c0-0.948,0.178-1.775,0.533-2.481c0.355-0.704,0.848-1.254,1.479-1.647c0.631-0.393,1.357-0.59,2.182-0.59
			c0.586,0,1.107,0.101,1.563,0.3c0.457,0.2,0.844,0.487,1.162,0.861c0.318,0.375,0.561,0.83,0.73,1.367
			c0.168,0.536,0.252,1.142,0.252,1.815c0,0.163-0.035,0.284-0.104,0.365s-0.172,0.122-0.309,0.122h-6.984v-0.693h6.984
			l-0.318,0.225c0-0.761-0.111-1.413-0.336-1.956s-0.561-0.961-1.002-1.254c-0.443-0.294-0.996-0.44-1.658-0.44
			c-0.723,0-1.338,0.172-1.844,0.515c-0.506,0.344-0.887,0.809-1.143,1.396c-0.256,0.586-0.383,1.254-0.383,2.003v0.094
			c0,1.248,0.309,2.212,0.926,2.893c0.619,0.681,1.482,1.021,2.594,1.021c0.5,0,0.967-0.065,1.404-0.197
			c0.438-0.131,0.867-0.364,1.291-0.702c0.088-0.074,0.178-0.115,0.271-0.121s0.176,0.013,0.244,0.056
			c0.068,0.044,0.119,0.101,0.15,0.169s0.033,0.146,0.008,0.234c-0.023,0.087-0.086,0.168-0.186,0.243
			c-0.389,0.324-0.861,0.58-1.424,0.768C258.135,365.996,257.561,366.089,256.973,366.089z"/>
		<path fill="#939598" d="M272.756,366.052c-0.123,0-0.221-0.037-0.289-0.112s-0.104-0.175-0.104-0.3v-8.462
			c0-0.138,0.035-0.24,0.104-0.31c0.068-0.068,0.166-0.103,0.289-0.103c0.125,0,0.219,0.034,0.281,0.103
			c0.063,0.069,0.094,0.172,0.094,0.31v1.815h-0.188c0.238-0.736,0.658-1.304,1.264-1.703s1.309-0.6,2.107-0.6
			c0.111,0,0.209,0.022,0.289,0.065c0.082,0.044,0.123,0.128,0.123,0.253s-0.031,0.222-0.094,0.29
			c-0.063,0.069-0.17,0.109-0.318,0.122l-0.225,0.019c-0.924,0.088-1.645,0.399-2.162,0.937c-0.52,0.536-0.777,1.248-0.777,2.134
			v5.13c0,0.125-0.031,0.225-0.094,0.3S272.895,366.052,272.756,366.052z"/>
		<path fill="#939598" d="M290.486,366.089c-0.586,0-1.117-0.118-1.592-0.355s-0.848-0.559-1.123-0.964
			c-0.273-0.405-0.412-0.858-0.412-1.357c0-0.674,0.166-1.201,0.496-1.582c0.332-0.381,0.9-0.649,1.705-0.806
			c0.805-0.155,1.912-0.233,3.322-0.233h0.768v0.692h-0.73c-1.234,0-2.193,0.054-2.873,0.159c-0.68,0.106-1.154,0.294-1.424,0.562
			c-0.268,0.269-0.402,0.646-0.402,1.133c0,0.6,0.209,1.089,0.627,1.47s0.984,0.571,1.695,0.571c0.574,0,1.076-0.141,1.508-0.422
			c0.43-0.28,0.77-0.661,1.02-1.142s0.375-1.026,0.375-1.639v-2.134c0-0.898-0.176-1.554-0.525-1.966s-0.91-0.618-1.684-0.618
			c-0.5,0-0.977,0.069-1.434,0.206c-0.455,0.138-0.932,0.35-1.432,0.637c-0.113,0.063-0.209,0.087-0.291,0.075
			c-0.08-0.013-0.146-0.047-0.195-0.104c-0.051-0.056-0.084-0.124-0.104-0.206c-0.02-0.081-0.012-0.159,0.02-0.233
			c0.031-0.075,0.09-0.138,0.178-0.188c0.512-0.312,1.041-0.543,1.592-0.692c0.549-0.15,1.092-0.226,1.627-0.226
			c0.688,0,1.256,0.119,1.705,0.356s0.783,0.599,1.002,1.086c0.217,0.486,0.326,1.11,0.326,1.872v5.598
			c0,0.125-0.031,0.225-0.094,0.3s-0.156,0.112-0.279,0.112c-0.125,0-0.223-0.037-0.291-0.112s-0.104-0.175-0.104-0.3v-1.966h0.207
			c-0.125,0.5-0.338,0.931-0.637,1.292c-0.299,0.362-0.664,0.64-1.096,0.833C291.508,365.992,291.023,366.089,290.486,366.089z"/>
		<path fill="#939598" d="M307.131,369.422c-0.125,0-0.223-0.037-0.291-0.112s-0.102-0.175-0.102-0.3v-11.832
			c0-0.138,0.033-0.24,0.102-0.31c0.068-0.068,0.166-0.103,0.291-0.103s0.221,0.034,0.291,0.103c0.068,0.069,0.102,0.172,0.102,0.31
			v2.059h-0.205c0.211-0.773,0.621-1.385,1.227-1.834s1.344-0.675,2.219-0.675c0.822,0,1.535,0.19,2.133,0.571
			c0.6,0.381,1.064,0.921,1.396,1.62c0.33,0.699,0.496,1.528,0.496,2.489c0,0.949-0.164,1.776-0.488,2.481s-0.789,1.248-1.395,1.629
			s-1.32,0.57-2.143,0.57c-0.875,0-1.613-0.228-2.219-0.683c-0.605-0.456-1.016-1.064-1.227-1.826h0.205v5.43
			c0,0.125-0.033,0.225-0.102,0.3C307.352,369.385,307.256,369.422,307.131,369.422z M310.744,365.359
			c0.662,0,1.236-0.156,1.723-0.469c0.486-0.312,0.861-0.764,1.123-1.357c0.262-0.592,0.393-1.301,0.393-2.125
			c0-1.248-0.289-2.218-0.869-2.911c-0.58-0.692-1.371-1.039-2.369-1.039c-0.662,0-1.236,0.156-1.723,0.468
			c-0.486,0.313-0.861,0.762-1.123,1.349s-0.393,1.298-0.393,2.134c0,1.249,0.293,2.219,0.879,2.912
			C308.973,365.013,309.758,365.359,310.744,365.359z"/>
		<path fill="#939598" d="M330.496,366.089c-0.898,0-1.672-0.187-2.32-0.562c-0.65-0.374-1.152-0.908-1.508-1.601
			s-0.533-1.52-0.533-2.48c0-0.948,0.178-1.775,0.533-2.481c0.355-0.704,0.848-1.254,1.479-1.647c0.631-0.393,1.357-0.59,2.182-0.59
			c0.586,0,1.107,0.101,1.563,0.3c0.455,0.2,0.842,0.487,1.16,0.861c0.318,0.375,0.563,0.83,0.73,1.367
			c0.17,0.536,0.254,1.142,0.254,1.815c0,0.163-0.035,0.284-0.104,0.365s-0.172,0.122-0.309,0.122h-6.984v-0.693h6.984l-0.318,0.225
			c0-0.761-0.113-1.413-0.338-1.956s-0.559-0.961-1.002-1.254c-0.441-0.294-0.994-0.44-1.656-0.44c-0.725,0-1.338,0.172-1.844,0.515
			c-0.506,0.344-0.887,0.809-1.143,1.396c-0.256,0.586-0.383,1.254-0.383,2.003v0.094c0,1.248,0.309,2.212,0.926,2.893
			c0.619,0.681,1.482,1.021,2.594,1.021c0.498,0,0.967-0.065,1.404-0.197c0.436-0.131,0.867-0.364,1.291-0.702
			c0.088-0.074,0.178-0.115,0.271-0.121s0.176,0.013,0.244,0.056c0.068,0.044,0.117,0.101,0.148,0.169s0.035,0.146,0.01,0.234
			c-0.025,0.087-0.088,0.168-0.188,0.243c-0.387,0.324-0.861,0.58-1.422,0.768C331.656,365.996,331.082,366.089,330.496,366.089z"/>
		<path fill="#939598" d="M349.049,366.089c-0.711,0-1.303-0.131-1.777-0.393c-0.475-0.263-0.83-0.649-1.068-1.161
			c-0.236-0.512-0.355-1.148-0.355-1.909v-5.448c0-0.138,0.035-0.24,0.104-0.31c0.068-0.068,0.166-0.103,0.291-0.103
			c0.123,0,0.221,0.034,0.289,0.103c0.068,0.069,0.104,0.172,0.104,0.31v5.373c0,0.948,0.193,1.654,0.58,2.115
			c0.387,0.462,0.998,0.693,1.834,0.693c0.912,0,1.652-0.303,2.219-0.908c0.568-0.605,0.854-1.401,0.854-2.388v-4.886
			c0-0.138,0.033-0.24,0.102-0.31c0.068-0.068,0.166-0.103,0.291-0.103s0.221,0.034,0.289,0.103c0.068,0.069,0.104,0.172,0.104,0.31
			v8.462c0,0.275-0.125,0.412-0.375,0.412c-0.125,0-0.221-0.037-0.289-0.112s-0.104-0.175-0.104-0.3v-1.966h0.225
			c-0.236,0.786-0.654,1.386-1.254,1.798C350.51,365.883,349.824,366.089,349.049,366.089z"/>
		<path fill="#939598" d="M368.635,366.089c-0.625,0-1.15-0.121-1.574-0.364c-0.424-0.244-0.742-0.593-0.955-1.049
			c-0.211-0.456-0.318-1.008-0.318-1.657v-5.467h-1.516c-0.125,0-0.225-0.031-0.299-0.094c-0.076-0.063-0.113-0.144-0.113-0.243
			s0.037-0.181,0.113-0.243c0.074-0.063,0.174-0.094,0.299-0.094h1.516v-2.527c0-0.138,0.035-0.24,0.104-0.31
			c0.068-0.068,0.166-0.103,0.291-0.103s0.221,0.034,0.289,0.103c0.068,0.069,0.104,0.172,0.104,0.31v2.527h2.678
			c0.137,0,0.24,0.031,0.309,0.094s0.104,0.144,0.104,0.243s-0.035,0.181-0.104,0.243s-0.172,0.094-0.309,0.094h-2.678v5.299
			c0,0.812,0.162,1.432,0.486,1.862s0.867,0.646,1.629,0.646c0.262,0,0.479-0.028,0.646-0.085c0.168-0.056,0.309-0.084,0.422-0.084
			c0.074,0,0.141,0.031,0.195,0.094c0.057,0.063,0.084,0.149,0.084,0.262c0,0.063-0.016,0.129-0.045,0.197
			c-0.033,0.068-0.092,0.115-0.18,0.14c-0.125,0.051-0.303,0.097-0.533,0.141S368.834,366.089,368.635,366.089z"/>
		<path fill="#939598" d="M383.537,366.089c-0.588,0-1.117-0.118-1.592-0.355s-0.85-0.559-1.123-0.964
			c-0.275-0.405-0.412-0.858-0.412-1.357c0-0.674,0.164-1.201,0.496-1.582c0.33-0.381,0.898-0.649,1.703-0.806
			c0.805-0.155,1.912-0.233,3.324-0.233h0.768v0.692h-0.73c-1.236,0-2.193,0.054-2.875,0.159c-0.68,0.106-1.154,0.294-1.422,0.562
			c-0.27,0.269-0.402,0.646-0.402,1.133c0,0.6,0.209,1.089,0.627,1.47s0.982,0.571,1.693,0.571c0.574,0,1.078-0.141,1.508-0.422
			c0.432-0.28,0.771-0.661,1.021-1.142c0.248-0.48,0.373-1.026,0.373-1.639v-2.134c0-0.898-0.174-1.554-0.523-1.966
			s-0.912-0.618-1.686-0.618c-0.5,0-0.977,0.069-1.432,0.206c-0.457,0.138-0.934,0.35-1.432,0.637
			c-0.113,0.063-0.211,0.087-0.291,0.075c-0.082-0.013-0.146-0.047-0.197-0.104c-0.049-0.056-0.084-0.124-0.102-0.206
			c-0.02-0.081-0.014-0.159,0.018-0.233c0.031-0.075,0.09-0.138,0.178-0.188c0.512-0.312,1.043-0.543,1.592-0.692
			c0.549-0.15,1.092-0.226,1.629-0.226c0.686,0,1.254,0.119,1.703,0.356s0.783,0.599,1.002,1.086
			c0.219,0.486,0.328,1.11,0.328,1.872v5.598c0,0.125-0.031,0.225-0.094,0.3s-0.156,0.112-0.281,0.112s-0.221-0.037-0.289-0.112
			c-0.07-0.075-0.104-0.175-0.104-0.3v-1.966h0.205c-0.125,0.5-0.336,0.931-0.637,1.292c-0.299,0.362-0.664,0.64-1.094,0.833
			C384.557,365.992,384.072,366.089,383.537,366.089z"/>
		<path fill="#939598" d="M402.615,366.089c-0.574,0-1.131-0.081-1.666-0.243c-0.537-0.162-1.063-0.437-1.574-0.823
			c-0.063-0.05-0.102-0.112-0.121-0.188s-0.02-0.15,0-0.225c0.02-0.075,0.057-0.141,0.111-0.197
			c0.057-0.056,0.125-0.084,0.207-0.084c0.08,0,0.166,0.031,0.252,0.094c0.475,0.35,0.949,0.593,1.424,0.73s0.947,0.206,1.422,0.206
			c0.813,0,1.434-0.156,1.863-0.469c0.432-0.312,0.646-0.736,0.646-1.272c0-0.425-0.141-0.759-0.422-1.002s-0.732-0.44-1.357-0.59
			l-1.553-0.374c-0.787-0.188-1.365-0.475-1.732-0.861c-0.369-0.387-0.553-0.887-0.553-1.498c0-0.512,0.135-0.961,0.402-1.348
			c0.27-0.387,0.648-0.687,1.143-0.899c0.492-0.212,1.064-0.318,1.713-0.318c0.549,0,1.076,0.088,1.582,0.263
			s0.934,0.437,1.283,0.786c0.074,0.075,0.121,0.153,0.141,0.234c0.018,0.081,0.016,0.159-0.01,0.233
			c-0.025,0.075-0.068,0.132-0.131,0.169s-0.135,0.053-0.215,0.047c-0.082-0.006-0.166-0.047-0.254-0.122
			c-0.35-0.3-0.73-0.521-1.143-0.664s-0.836-0.216-1.271-0.216c-0.762,0-1.355,0.166-1.779,0.496
			c-0.424,0.331-0.637,0.771-0.637,1.32c0,0.424,0.131,0.768,0.393,1.029c0.262,0.263,0.68,0.462,1.254,0.6l1.555,0.374
			c0.811,0.2,1.416,0.48,1.816,0.843c0.398,0.362,0.6,0.849,0.6,1.46c0,0.762-0.307,1.37-0.918,1.826
			C404.475,365.861,403.65,366.089,402.615,366.089z"/>
		<path fill="#939598" d="M435.566,366.089c-0.824,0-1.529-0.131-2.115-0.393c-0.588-0.263-1.033-0.627-1.34-1.096
			c-0.305-0.468-0.459-1.021-0.459-1.656c0-0.412,0.057-0.793,0.17-1.143c0.111-0.35,0.283-0.684,0.514-1.002
			s0.527-0.637,0.891-0.954c0.361-0.318,0.785-0.652,1.271-1.002l0.582-0.412l-0.094,0.149c-0.65-0.736-1.096-1.341-1.34-1.815
			c-0.242-0.475-0.365-0.961-0.365-1.461c0-0.536,0.119-1.008,0.357-1.413c0.236-0.405,0.572-0.724,1.01-0.955
			c0.438-0.23,0.949-0.347,1.535-0.347c0.725,0,1.34,0.223,1.844,0.665c0.506,0.443,0.76,1.052,0.76,1.825
			c0,0.425-0.082,0.821-0.244,1.189s-0.449,0.749-0.861,1.142c-0.412,0.394-1.004,0.846-1.779,1.357l0.039-0.243l3.781,4.399h-0.188
			c0.188-0.324,0.354-0.705,0.496-1.142c0.145-0.437,0.26-0.918,0.346-1.441c0.088-0.524,0.145-1.08,0.17-1.667
			c0.012-0.137,0.053-0.24,0.121-0.309s0.166-0.103,0.291-0.103c0.123,0,0.217,0.037,0.279,0.112
			c0.063,0.074,0.088,0.181,0.076,0.318c-0.025,0.674-0.098,1.304-0.215,1.891c-0.119,0.587-0.27,1.13-0.451,1.629
			c-0.18,0.499-0.389,0.955-0.627,1.366l-0.037-0.337l1.947,2.266c0.088,0.088,0.125,0.175,0.113,0.262
			c-0.014,0.088-0.055,0.156-0.123,0.206s-0.152,0.075-0.252,0.075c-0.088,0-0.16-0.016-0.215-0.047
			c-0.057-0.031-0.123-0.09-0.197-0.178l-1.686-1.947h0.262c-0.486,0.699-1.098,1.242-1.834,1.629S436.453,366.089,435.566,366.089z
			 M435.566,365.359c0.824,0,1.555-0.178,2.189-0.534c0.637-0.355,1.174-0.877,1.611-1.563v0.375l-4.063-4.662h0.242l-0.598,0.431
			c-0.625,0.438-1.121,0.836-1.49,1.198c-0.367,0.362-0.629,0.724-0.785,1.086s-0.234,0.774-0.234,1.235
			c0,0.762,0.266,1.357,0.795,1.788C433.766,365.144,434.543,365.359,435.566,365.359z M436.184,353.32
			c-0.623,0-1.133,0.185-1.525,0.553s-0.59,0.846-0.59,1.432c0,0.288,0.043,0.56,0.131,0.814c0.088,0.256,0.25,0.543,0.486,0.861
			c0.238,0.318,0.568,0.728,0.992,1.227l-0.299,0.075c0.662-0.449,1.186-0.846,1.572-1.189c0.387-0.343,0.666-0.671,0.834-0.982
			c0.168-0.313,0.252-0.63,0.252-0.955c0-0.549-0.172-0.992-0.514-1.329C437.18,353.489,436.732,353.32,436.184,353.32z"/>
		<path fill="#939598" d="M470.951,366.089c-0.623,0-1.148-0.121-1.572-0.364c-0.424-0.244-0.742-0.593-0.955-1.049
			s-0.318-1.008-0.318-1.657v-5.467h-1.516c-0.125,0-0.225-0.031-0.301-0.094c-0.074-0.063-0.111-0.144-0.111-0.243
			s0.037-0.181,0.111-0.243c0.076-0.063,0.176-0.094,0.301-0.094h1.516v-2.527c0-0.138,0.035-0.24,0.104-0.31
			c0.068-0.068,0.164-0.103,0.289-0.103s0.223,0.034,0.291,0.103c0.068,0.069,0.104,0.172,0.104,0.31v2.527h2.676
			c0.139,0,0.24,0.031,0.311,0.094c0.068,0.063,0.102,0.144,0.102,0.243s-0.033,0.181-0.102,0.243
			c-0.07,0.063-0.172,0.094-0.311,0.094h-2.676v5.299c0,0.812,0.162,1.432,0.486,1.862s0.867,0.646,1.629,0.646
			c0.262,0,0.477-0.028,0.646-0.085c0.168-0.056,0.309-0.084,0.42-0.084c0.076,0,0.141,0.031,0.197,0.094s0.084,0.149,0.084,0.262
			c0,0.063-0.016,0.129-0.047,0.197s-0.09,0.115-0.178,0.14c-0.125,0.051-0.303,0.097-0.533,0.141S471.15,366.089,470.951,366.089z"
			/>
		<path fill="#939598" d="M486.791,366.089c-0.898,0-1.674-0.187-2.322-0.562c-0.648-0.374-1.15-0.908-1.506-1.601
			c-0.357-0.692-0.535-1.52-0.535-2.48c0-0.948,0.178-1.775,0.535-2.481c0.355-0.704,0.848-1.254,1.479-1.647
			c0.629-0.393,1.357-0.59,2.182-0.59c0.586,0,1.107,0.101,1.563,0.3c0.455,0.2,0.842,0.487,1.16,0.861
			c0.318,0.375,0.563,0.83,0.73,1.367c0.168,0.536,0.254,1.142,0.254,1.815c0,0.163-0.035,0.284-0.104,0.365
			s-0.172,0.122-0.309,0.122h-6.984v-0.693h6.984l-0.318,0.225c0-0.761-0.113-1.413-0.338-1.956s-0.559-0.961-1.002-1.254
			c-0.443-0.294-0.994-0.44-1.656-0.44c-0.725,0-1.338,0.172-1.844,0.515c-0.506,0.344-0.887,0.809-1.143,1.396
			c-0.256,0.586-0.385,1.254-0.385,2.003v0.094c0,1.248,0.311,2.212,0.928,2.893s1.482,1.021,2.594,1.021
			c0.498,0,0.967-0.065,1.404-0.197c0.436-0.131,0.867-0.364,1.291-0.702c0.088-0.074,0.178-0.115,0.271-0.121
			s0.174,0.013,0.244,0.056c0.068,0.044,0.117,0.101,0.148,0.169s0.035,0.146,0.01,0.234c-0.025,0.087-0.088,0.168-0.188,0.243
			c-0.387,0.324-0.861,0.58-1.422,0.768C487.951,365.996,487.377,366.089,486.791,366.089z"/>
		<path fill="#939598" d="M502.572,366.052c-0.125,0-0.221-0.037-0.289-0.112s-0.104-0.175-0.104-0.3v-8.462
			c0-0.138,0.035-0.24,0.104-0.31c0.068-0.068,0.164-0.103,0.289-0.103s0.219,0.034,0.281,0.103c0.063,0.069,0.094,0.172,0.094,0.31
			v1.815h-0.188c0.238-0.736,0.658-1.304,1.264-1.703s1.309-0.6,2.107-0.6c0.111,0,0.209,0.022,0.289,0.065
			c0.082,0.044,0.123,0.128,0.123,0.253s-0.031,0.222-0.094,0.29c-0.063,0.069-0.17,0.109-0.318,0.122l-0.225,0.019
			c-0.924,0.088-1.645,0.399-2.164,0.937c-0.518,0.536-0.775,1.248-0.775,2.134v5.13c0,0.125-0.031,0.225-0.094,0.3
			S502.711,366.052,502.572,366.052z"/>
		<path fill="#939598" d="M520.305,366.089c-0.588,0-1.117-0.118-1.592-0.355s-0.85-0.559-1.123-0.964
			c-0.275-0.405-0.412-0.858-0.412-1.357c0-0.674,0.164-1.201,0.496-1.582c0.33-0.381,0.898-0.649,1.703-0.806
			c0.805-0.155,1.912-0.233,3.324-0.233h0.768v0.692h-0.73c-1.236,0-2.193,0.054-2.875,0.159c-0.68,0.106-1.154,0.294-1.422,0.562
			c-0.27,0.269-0.402,0.646-0.402,1.133c0,0.6,0.209,1.089,0.627,1.47s0.982,0.571,1.693,0.571c0.574,0,1.078-0.141,1.508-0.422
			c0.43-0.28,0.771-0.661,1.02-1.142c0.25-0.48,0.375-1.026,0.375-1.639v-2.134c0-0.898-0.174-1.554-0.523-1.966
			s-0.912-0.618-1.686-0.618c-0.5,0-0.977,0.069-1.432,0.206c-0.457,0.138-0.934,0.35-1.434,0.637
			c-0.111,0.063-0.209,0.087-0.289,0.075c-0.082-0.013-0.146-0.047-0.197-0.104c-0.049-0.056-0.084-0.124-0.104-0.206
			c-0.018-0.081-0.012-0.159,0.02-0.233c0.031-0.075,0.09-0.138,0.178-0.188c0.512-0.312,1.043-0.543,1.592-0.692
			c0.549-0.15,1.092-0.226,1.629-0.226c0.686,0,1.254,0.119,1.703,0.356s0.783,0.599,1.002,1.086
			c0.219,0.486,0.328,1.11,0.328,1.872v5.598c0,0.125-0.031,0.225-0.094,0.3s-0.156,0.112-0.281,0.112s-0.221-0.037-0.291-0.112
			c-0.068-0.075-0.102-0.175-0.102-0.3v-1.966h0.205c-0.125,0.5-0.336,0.931-0.637,1.292c-0.299,0.362-0.664,0.64-1.094,0.833
			C521.324,365.992,520.84,366.089,520.305,366.089z"/>
		<path fill="#939598" d="M536.947,369.422c-0.125,0-0.221-0.037-0.289-0.112s-0.104-0.175-0.104-0.3v-11.832
			c0-0.138,0.035-0.24,0.104-0.31c0.068-0.068,0.164-0.103,0.289-0.103s0.223,0.034,0.291,0.103c0.068,0.069,0.104,0.172,0.104,0.31
			v2.059h-0.207c0.213-0.773,0.621-1.385,1.227-1.834s1.346-0.675,2.219-0.675c0.824,0,1.535,0.19,2.135,0.571
			s1.064,0.921,1.395,1.62s0.496,1.528,0.496,2.489c0,0.949-0.162,1.776-0.486,2.481s-0.789,1.248-1.395,1.629
			s-1.32,0.57-2.145,0.57c-0.873,0-1.613-0.228-2.219-0.683c-0.605-0.456-1.014-1.064-1.227-1.826h0.207v5.43
			c0,0.125-0.035,0.225-0.104,0.3S537.072,369.422,536.947,369.422z M540.561,365.359c0.662,0,1.236-0.156,1.723-0.469
			c0.488-0.312,0.861-0.764,1.123-1.357c0.264-0.592,0.395-1.301,0.395-2.125c0-1.248-0.291-2.218-0.871-2.911
			c-0.58-0.692-1.369-1.039-2.369-1.039c-0.66,0-1.234,0.156-1.721,0.468c-0.488,0.313-0.861,0.762-1.125,1.349
			c-0.262,0.587-0.393,1.298-0.393,2.134c0,1.249,0.293,2.219,0.881,2.912C538.789,365.013,539.576,365.359,540.561,365.359z"/>
		<path fill="#939598" d="M556.943,354.406c-0.199,0-0.359-0.059-0.479-0.178c-0.117-0.118-0.178-0.277-0.178-0.478
			c0-0.212,0.061-0.371,0.178-0.478c0.119-0.105,0.279-0.159,0.479-0.159c0.211,0,0.375,0.054,0.486,0.159
			c0.113,0.106,0.168,0.266,0.168,0.478c0,0.2-0.055,0.359-0.168,0.478C557.318,354.348,557.154,354.406,556.943,354.406z
			 M556.943,365.996c-0.125,0-0.223-0.038-0.291-0.113c-0.068-0.074-0.102-0.174-0.102-0.299v-8.351c0-0.137,0.033-0.24,0.102-0.309
			s0.166-0.104,0.291-0.104s0.221,0.035,0.289,0.104s0.104,0.172,0.104,0.309v8.351c0,0.125-0.031,0.225-0.094,0.299
			C557.18,365.958,557.08,365.996,556.943,365.996z"/>
		<path fill="#939598" d="M572.613,366.089c-0.586,0-1.117-0.118-1.592-0.355s-0.848-0.559-1.123-0.964s-0.412-0.858-0.412-1.357
			c0-0.674,0.166-1.201,0.496-1.582c0.332-0.381,0.898-0.649,1.705-0.806c0.805-0.155,1.912-0.233,3.322-0.233h0.768v0.692h-0.73
			c-1.234,0-2.193,0.054-2.873,0.159c-0.682,0.106-1.154,0.294-1.424,0.562c-0.268,0.269-0.402,0.646-0.402,1.133
			c0,0.6,0.209,1.089,0.627,1.47s0.984,0.571,1.695,0.571c0.574,0,1.076-0.141,1.508-0.422c0.43-0.28,0.77-0.661,1.02-1.142
			s0.375-1.026,0.375-1.639v-2.134c0-0.898-0.176-1.554-0.525-1.966s-0.91-0.618-1.684-0.618c-0.5,0-0.979,0.069-1.434,0.206
			c-0.455,0.138-0.934,0.35-1.432,0.637c-0.113,0.063-0.209,0.087-0.291,0.075c-0.08-0.013-0.146-0.047-0.195-0.104
			c-0.051-0.056-0.084-0.124-0.104-0.206c-0.02-0.081-0.014-0.159,0.02-0.233c0.029-0.075,0.09-0.138,0.178-0.188
			c0.512-0.312,1.041-0.543,1.59-0.692c0.551-0.15,1.094-0.226,1.629-0.226c0.688,0,1.256,0.119,1.705,0.356
			s0.783,0.599,1.002,1.086c0.217,0.486,0.326,1.11,0.326,1.872v5.598c0,0.125-0.031,0.225-0.094,0.3s-0.156,0.112-0.279,0.112
			c-0.125,0-0.223-0.037-0.291-0.112s-0.104-0.175-0.104-0.3v-1.966h0.207c-0.125,0.5-0.338,0.931-0.637,1.292
			c-0.301,0.362-0.666,0.64-1.096,0.833S573.15,366.089,572.613,366.089z"/>
		<path fill="#939598" d="M591.691,366.089c-0.574,0-1.129-0.081-1.666-0.243s-1.061-0.437-1.572-0.823
			c-0.063-0.05-0.104-0.112-0.123-0.188c-0.018-0.075-0.018-0.15,0-0.225c0.02-0.075,0.057-0.141,0.113-0.197
			c0.057-0.056,0.125-0.084,0.205-0.084c0.082,0,0.166,0.031,0.254,0.094c0.475,0.35,0.947,0.593,1.422,0.73
			s0.949,0.206,1.424,0.206c0.811,0,1.432-0.156,1.863-0.469c0.43-0.312,0.645-0.736,0.645-1.272c0-0.425-0.141-0.759-0.42-1.002
			c-0.281-0.243-0.734-0.44-1.357-0.59l-1.555-0.374c-0.787-0.188-1.363-0.475-1.732-0.861c-0.367-0.387-0.551-0.887-0.551-1.498
			c0-0.512,0.133-0.961,0.402-1.348c0.268-0.387,0.648-0.687,1.141-0.899c0.494-0.212,1.064-0.318,1.713-0.318
			c0.551,0,1.078,0.088,1.582,0.263c0.506,0.175,0.934,0.437,1.283,0.786c0.074,0.075,0.121,0.153,0.141,0.234
			s0.016,0.159-0.01,0.233c-0.025,0.075-0.068,0.132-0.131,0.169s-0.135,0.053-0.215,0.047c-0.082-0.006-0.166-0.047-0.254-0.122
			c-0.35-0.3-0.729-0.521-1.141-0.664s-0.836-0.216-1.273-0.216c-0.762,0-1.355,0.166-1.779,0.496
			c-0.424,0.331-0.637,0.771-0.637,1.32c0,0.424,0.131,0.768,0.395,1.029c0.262,0.263,0.68,0.462,1.254,0.6l1.553,0.374
			c0.813,0.2,1.418,0.48,1.816,0.843c0.4,0.362,0.6,0.849,0.6,1.46c0,0.762-0.307,1.37-0.918,1.826
			C593.551,365.861,592.727,366.089,591.691,366.089z"/>
	</g>
	<g>
		<path fill="#808285" d="M450.329,242.071c-6.339-10.338-17.339-16.509-29.427-16.509c-5.063,0-9.95,1.096-14.523,3.257
			c-9.106,4.305-15.659,11.899-18.453,21.386c-2.765,9.39-1.325,19.639,3.95,28.119c3.052,4.911,7.208,8.826,12.354,11.635
			c0.48,0.262,1.369,0.246,1.882-0.022c0.452-0.239,0.809-1.158,0.636-1.641c-0.25-0.685-0.989-1.172-1.295-1.35
			c-7.663-4.465-12.951-11.608-14.889-20.115c-1.91-8.381-0.281-16.955,4.585-24.142c6.197-9.153,14.708-13.795,25.294-13.795
			c0.901,0,1.828,0.035,2.755,0.104c12.29,0.916,21.415,7.435,26.388,18.853c3.53,8.104,3.363,17.354-0.457,25.379
			c-3.888,8.167-11.122,14.244-19.849,16.672c-4.335,1.207-8.744,1.462-13.093,0.76c-0.427-0.07-0.971-0.352-1.033-0.427
			c-0.061-1.194-0.021-2.378,0.02-3.632c0.01-0.324,0.021-0.65,0.029-0.979l0.136,0.013c0.213,0.021,0.354,0.034,0.492,0.06
			c1.698,0.31,3.414,0.467,5.101,0.467c9.817,0,18.51-5.24,23.253-14.019c1.938-3.588,2.953-7.439,3.014-11.449
			c0.021-1.604-0.371-2.045-2-2.246c-0.278-0.034-0.561-0.063-0.84-0.083c-0.688-0.047-1.387-0.07-2.075-0.07
			c-13.493,0-25.521,9.067-29.251,22.051c-0.079,0.276-0.168,0.55-0.256,0.823l-0.024,0.077c-5.294-1.825-9.818-5.935-12.446-11.316
			c-2.577-5.279-3.053-11.191-1.318-16.271c0.146,0.056,0.282,0.11,0.396,0.183c2.894,1.818,5.146,3.907,6.886,6.383
			c2.751,3.918,4.183,8.287,4.257,12.987c0.024,1.571,0.889,1.902,1.611,1.903c0.533,0,0.953-0.159,1.248-0.474
			c0.321-0.342,0.469-0.858,0.429-1.491c-0.016-0.257-0.028-0.514-0.041-0.771c-0.04-0.799-0.081-1.625-0.208-2.433
			c-1.437-9.05-6.299-15.768-14.452-19.968c-0.504-0.261-0.925-0.388-1.286-0.388c-0.942,0-1.355,0.854-1.584,1.495
			c-1.551,4.352-1.967,8.665-1.237,12.822c1.686,9.644,7.159,16.514,16.271,20.419c0.622,0.267,0.809,0.449,0.767,1.073
			c-0.119,1.729-0.174,3.625-0.165,5.795c0.007,1.738,0.44,2.075,2.039,2.404c2.339,0.48,4.707,0.724,7.04,0.724
			c3.147,0,6.332-0.443,9.467-1.317c10.335-2.886,18.54-10.337,22.512-20.445C456.927,262.399,455.978,251.286,450.329,242.071z
			 M416.033,281.607c2.989-11.418,14.156-20.028,25.977-20.028c0.227,0,0.454,0.003,0.682,0.01c0.282,0.007,0.563,0.031,0.891,0.06
			l0.244,0.021c-0.209,3.738-1.341,7.174-3.456,10.493c-4.222,6.639-11.653,10.762-19.396,10.762c-1.462,0-2.928-0.146-4.356-0.435
			c-0.355-0.071-0.551-0.152-0.615-0.256C415.939,282.133,415.949,281.928,416.033,281.607z"/>
		<path fill="#808285" d="M417.399,264.652c0.455,0,0.971-0.205,1.575-0.628c6.353-4.443,9.421-10.488,9.65-19.09
			c-0.061-0.317-0.129-0.708-0.205-1.148c-0.2-1.152-0.474-2.729-0.851-4.255c-0.448-1.801-1.489-2.225-3.153-1.12
			c-7.957,5.287-11.536,15.365-8.703,24.509C416.073,264.086,416.625,264.652,417.399,264.652z M424.818,242.317
			c1.673,6.18-1.089,14.021-6.284,17.827C416.371,255.748,419.968,245.547,424.818,242.317z"/>
	</g>
</g>
</svg>
